<?xml version="1.0" standalone="no"?>
<!DOCTYPE svg PUBLIC "-//W3C//DTD SVG 20010904//EN"
 "http://www.w3.org/TR/2001/REC-SVG-20010904/DTD/svg10.dtd">
<svg version="1.0" xmlns="http://www.w3.org/2000/svg"
 width="32.000000pt" height="32.000000pt" viewBox="0 0 527.000000 520.000000"
 preserveAspectRatio="xMidYMid meet">

<g transform="translate(0.000000,520.000000) scale(0.100000,-0.100000)"
fill="#000000" stroke="none">
<path d="M2787 4443 c21 -43 42 -114 59 -193 37 -180 57 -219 138 -270 61 -39
90 -63 49 -42 -29 16 -98 24 -137 17 -55 -11 -43 -20 27 -21 71 -1 142 -22
202 -58 l40 -24 -40 -8 c-26 -5 -60 -2 -97 8 -65 16 -66 20 14 -81 67 -83 98
-139 98 -174 0 -20 11 -29 58 -51 l57 -26 -55 6 c-30 3 -79 14 -107 23 -29 10
-53 16 -53 15 0 -9 94 -51 170 -75 l85 -28 -50 -1 -50 -1 25 -17 c46 -31 88
-84 124 -156 59 -119 53 -124 -31 -25 -179 211 -588 534 -756 596 -47 17 -49
17 -113 -5 -88 -31 -367 -149 -389 -166 -16 -12 -15 -14 16 -34 l34 -21 81 39
c81 39 246 100 267 100 7 0 -35 -23 -93 -50 -58 -28 -140 -67 -184 -88 l-78
-38 87 -43 87 -43 16 24 c30 44 87 89 148 119 79 37 101 37 43 0 -47 -30 -125
-109 -152 -153 -19 -30 -16 -34 52 -63 l44 -19 21 29 c12 16 49 59 84 95 l64
65 -40 -60 c-22 -33 -46 -73 -55 -90 -17 -34 -48 -135 -42 -135 3 0 23 36 45
81 38 74 111 169 131 169 5 0 -5 -23 -21 -51 -17 -28 -37 -66 -45 -86 -15 -34
-14 -35 6 -30 12 3 42 -2 68 -13 l46 -18 70 49 c38 26 70 47 72 46 1 -2 -7
-31 -17 -66 -27 -84 -26 -137 0 -66 l18 50 1 -47 c1 -40 4 -48 20 -48 10 0 31
16 45 35 15 19 35 39 46 45 18 10 18 9 3 -36 -12 -35 -13 -51 -4 -70 14 -32
27 -30 46 6 21 41 25 38 14 -11 -6 -23 -8 -42 -7 -44 23 -14 81 -45 82 -43 2
2 10 25 20 51 10 27 20 47 22 44 4 -4 -12 -109 -21 -138 -5 -15 -1 -19 18 -19
29 0 54 26 73 77 l14 38 -2 -49 c-2 -47 0 -50 35 -73 l36 -23 12 22 c11 21 12
21 40 -13 31 -38 37 -59 15 -59 -8 0 -52 9 -98 20 -105 25 -104 25 -79 -7 27
-34 20 -41 -16 -15 -73 51 -117 67 -206 72 -48 3 -87 2 -87 -1 0 -3 17 -11 38
-18 37 -11 65 -31 91 -64 9 -12 -7 -6 -50 16 -35 19 -105 50 -154 70 -82 33
-94 35 -128 25 -48 -15 -47 -24 3 -32 44 -7 213 -66 207 -72 -2 -2 -34 4 -72
13 -81 20 -154 9 -250 -37 -57 -28 -134 -85 -124 -94 2 -2 32 1 66 6 34 6 83
7 110 3 l48 -8 -115 -27 c-157 -37 -310 -81 -310 -90 0 -8 144 12 219 30 72
18 56 6 -32 -23 -46 -15 -93 -36 -104 -47 -30 -28 -77 -90 -71 -95 2 -2 40 11
84 30 43 18 93 37 109 41 24 5 18 -1 -26 -28 -31 -19 -66 -42 -80 -51 -22 -16
-114 -17 -1166 -17 l-1143 0 0 -35 0 -35 1100 0 c605 0 1100 -2 1100 -4 0 -2
-13 -33 -30 -68 -16 -34 -30 -68 -30 -74 0 -6 36 25 80 68 48 46 89 78 102 78
18 0 17 -3 -12 -37 -49 -55 -98 -135 -133 -219 l-32 -75 -1058 1 -1057 0 0
-24 c0 -13 3 -38 6 -55 l7 -31 1594 0 1595 0 -6 -37 c-3 -21 -8 -72 -11 -113
-3 -41 -8 -92 -11 -113 l-6 -37 -1539 0 c-1225 0 -1539 -3 -1538 -12 0 -7 10
-40 22 -73 l22 -60 1514 -3 1514 -2 -7 -77 c-3 -42 -6 -100 -6 -130 l0 -53
-1445 0 c-840 0 -1445 -4 -1445 -9 0 -5 21 -45 46 -90 l45 -81 1397 -2 c768 0
1382 -3 1364 -5 -28 -4 -31 -7 -21 -19 9 -11 9 -18 1 -26 -9 -9 -12 -9 -12 1
0 26 -29 41 -77 39 l-48 -1 45 -7 c25 -4 -136 -8 -357 -8 -263 -1 -403 1 -403
8 0 6 -33 9 -82 8 -71 -1 -77 -2 -38 -8 l45 -7 -41 -1 c-22 -1 -45 -7 -51 -13
-8 -8 -36 -8 -99 0 -54 7 -302 11 -631 11 -536 0 -543 0 -543 -20 0 -19 -7
-20 -101 -20 -55 0 -109 5 -120 10 -13 7 -19 7 -19 0 0 -5 -18 -10 -40 -10
-22 0 -40 5 -40 10 0 24 -20 7 -21 -17 0 -27 -1 -27 -9 -5 -5 12 -11 22 -13
22 -6 0 -2 -45 6 -58 6 -9 13 -10 21 -3 8 7 12 5 12 -9 0 -10 -4 -17 -7 -14
-4 2 -1 -10 8 -26 10 -20 20 -29 30 -26 8 3 11 1 8 -4 -29 -48 343 -411 590
-575 124 -83 277 -165 422 -226 54 -23 103 -45 108 -49 20 -15 263 -89 375
-114 230 -50 328 -60 590 -60 262 0 360 10 590 60 112 25 355 99 375 114 6 4
53 26 105 48 147 62 304 146 425 227 203 136 488 404 598 562 87 126 107 157
107 168 0 5 -9 -3 -20 -20 -11 -16 -20 -26 -20 -21 0 5 -6 5 -13 0 -7 -5 -2 1
11 12 15 14 22 27 17 34 -5 8 -4 11 2 7 6 -4 19 0 29 8 16 12 -15 13 -236 13
-165 -1 -225 -4 -170 -8 59 -4 22 -6 -120 -6 -139 0 -178 2 -120 6 48 4 -39 6
-200 6 -161 0 -248 -2 -200 -6 l85 -6 -122 -2 c-77 -1 -123 2 -123 8 0 6 -50
10 -130 10 l-129 0 -4 -62 -3 -63 -2 68 -2 67 759 0 759 0 51 88 50 87 -815 3
-814 2 0 108 c0 59 -3 117 -6 130 l-6 22 176 0 c97 0 176 -3 176 -8 0 -4 -4
-22 -9 -40 -13 -46 4 -40 23 8 9 22 23 40 31 40 14 0 14 -4 0 -36 -8 -20 -15
-54 -15 -76 0 -40 25 -108 40 -108 4 0 26 48 47 108 l40 107 620 3 621 2 -33
-78 c-18 -44 -43 -98 -55 -121 -12 -24 -20 -45 -17 -47 2 -2 23 37 47 87 255
550 307 1171 148 1762 -11 43 -22 76 -24 74 -3 -2 7 -46 21 -98 31 -117 62
-298 70 -409 3 -47 8 -113 11 -147 l6 -63 -367 0 c-202 0 -365 3 -363 8 55
107 60 125 55 182 -6 71 -26 110 -87 171 -57 57 -184 120 -290 144 -150 34
-414 16 -637 -43 -118 -32 -83 -7 55 38 153 51 170 59 122 60 -30 1 -25 4 33
21 92 26 182 68 258 120 l64 44 -80 10 -80 11 83 7 c46 4 91 13 102 19 29 18
89 117 105 172 15 53 23 152 12 162 -3 3 -41 -6 -83 -20 -43 -14 -79 -24 -82
-21 -5 5 121 88 162 106 22 10 26 19 27 53 2 98 -4 167 -21 263 -31 175 -90
362 -90 288 0 -60 -121 -294 -189 -365 l-39 -41 24 -71 c13 -39 22 -73 20 -76
-3 -2 -19 22 -37 54 l-33 57 -17 -51 c-33 -97 -131 -216 -211 -258 -16 -8 -28
-17 -28 -19 0 -3 9 -37 19 -77 11 -40 23 -95 26 -123 l6 -50 -25 30 c-14 17
-40 56 -56 88 -17 31 -34 57 -37 57 -9 0 7 -89 28 -155 l18 -60 -34 40 -34 40
-1 -42 c-1 -103 -63 -278 -97 -271 -15 3 -17 12 -15 53 5 71 47 256 71 311 12
26 19 49 17 51 -2 2 -22 -26 -45 -62 -23 -36 -43 -65 -46 -65 -7 0 57 133 99
202 22 37 60 91 85 120 42 49 42 51 7 18 -21 -19 -69 -82 -108 -140 -39 -58
-71 -106 -72 -107 -1 -2 6 29 16 68 17 69 17 73 -2 160 -11 49 -20 109 -20
134 0 25 -4 45 -9 45 -5 0 -24 -19 -42 -42 -51 -67 -52 -67 -23 -4 37 81 40
129 15 196 -22 58 -76 140 -92 140 -5 0 -9 -8 -9 -17 0 -21 -31 -90 -53 -118
-10 -13 -5 12 13 65 16 47 32 105 35 130 5 39 2 34 -23 -35 -24 -69 -72 -170
-58 -124 2 10 10 45 17 80 l12 63 -51 45 c-28 26 -74 59 -102 74 l-51 29 7
-26 c3 -15 3 -48 -1 -74 l-7 -47 -24 69 c-31 91 -59 119 -161 156 -46 16 -85
30 -87 30 -1 0 13 -30 31 -67z m339 -423 c118 -180 217 -417 263 -634 12 -54
20 -101 17 -103 -2 -2 -9 20 -16 49 -50 214 -179 526 -298 721 -63 102 -40 80
34 -33z m964 -67 c-65 -174 -161 -372 -239 -488 -67 -101 -159 -213 -187 -228
-11 -5 -3 8 18 29 124 132 303 454 423 762 15 39 30 70 32 68 3 -2 -19 -66
-47 -143z m-121 -990 c0 -35 5 -63 10 -63 5 0 23 -12 40 -26 17 -14 35 -23 40
-20 5 4 14 30 20 59 30 152 29 150 30 62 0 -44 -3 -97 -8 -117 -8 -35 -7 -39
24 -63 19 -14 36 -25 38 -25 3 0 24 29 47 65 23 36 44 65 47 65 6 0 -16 -38
-55 -98 -19 -29 -32 -55 -28 -59 4 -4 39 24 78 63 l71 69 -33 -50 c-19 -27
-50 -70 -69 -95 -84 -104 -48 -76 57 45 38 43 35 36 -20 -45 l-65 -95 -144 -2
c-135 -3 -149 -1 -234 26 -97 32 -78 44 25 17 30 -8 57 -13 59 -11 7 8 -74 97
-120 131 -40 29 -61 37 -109 41 -61 6 -74 23 -17 23 30 1 31 2 13 15 -10 8
-49 26 -85 40 -86 34 -113 56 -109 92 2 22 8 27 23 25 28 -5 31 -10 18 -31
-10 -16 -8 -20 13 -30 38 -17 49 -14 67 22 l17 32 -5 -30 c-11 -59 -11 -60 16
-63 22 -3 29 3 42 35 l16 38 0 -36 c1 -31 5 -38 28 -43 27 -7 42 5 43 34 1 12
3 11 11 -3 5 -9 8 -21 4 -26 -9 -16 16 -24 30 -10 8 8 18 30 23 49 l10 35 1
-37 c1 -34 4 -38 36 -44 19 -3 41 -4 49 -1 15 6 35 77 37 129 l1 33 8 -30 c4
-16 8 -58 9 -92z m-609 -12 c0 -11 -11 -66 -25 -123 -14 -57 -28 -124 -31
-150 l-7 -48 -188 0 -188 0 19 44 c26 61 62 116 100 151 28 27 25 19 -26 -68
-31 -54 -54 -100 -52 -102 8 -8 139 94 218 170 87 83 160 145 172 145 4 0 8
-9 8 -19z m-230 -15 c-154 -47 -372 -149 -517 -242 -73 -46 -66 -35 10 20 136
97 319 185 467 225 103 27 132 25 40 -3z m336 -77 c10 -48 13 -95 9 -134 -10
-94 -11 -95 -60 -95 l-44 0 5 38 c23 164 52 288 66 274 4 -4 15 -42 24 -83z
m171 -142 c18 -28 35 -61 38 -72 l6 -20 -16 20 c-9 11 -36 56 -60 100 -47 84
-22 63 32 -28z m779 76 c-18 -46 -91 -163 -103 -163 -7 0 10 35 42 82 30 45
55 85 55 90 0 4 3 8 6 8 3 0 3 -8 0 -17z m-1493 -106 c-9 -31 -20 -57 -25 -57
-4 0 -8 4 -8 9 0 12 42 112 46 109 1 -2 -5 -29 -13 -61z m-373 -187 c-10 -30
-17 -56 -15 -58 1 -2 23 11 48 29 30 21 48 42 52 61 11 50 25 30 25 -37 0 -68
7 -79 28 -45 7 11 37 36 67 55 29 19 56 39 60 45 15 25 27 8 21 -29 -3 -22 -2
-42 3 -46 5 -3 13 15 16 40 l7 45 209 0 c161 0 209 -3 209 -12 0 -7 -9 -80
-20 -162 -11 -81 -20 -151 -20 -155 0 -3 -214 -6 -475 -6 -310 0 -475 3 -475
10 0 20 101 211 130 245 27 31 24 22 -26 -89 -30 -67 -54 -124 -52 -126 2 -2
26 12 55 31 58 37 83 73 133 186 18 43 35 77 36 75 1 -1 -6 -27 -16 -57z m920
33 c0 -16 4 -34 9 -42 7 -11 12 -3 22 27 7 23 18 42 24 42 9 0 9 -14 -1 -60
-8 -33 -19 -71 -24 -86 -16 -42 -4 -40 19 3 11 21 20 35 21 32 0 -10 -81 -202
-90 -214 -7 -8 -56 -11 -92 -6 -10 1 -10 84 -1 224 l6 107 54 0 c51 0 53 -1
53 -27z m274 -26 c30 -66 72 -201 80 -252 4 -22 -15 21 -42 95 -27 74 -56 152
-65 173 -9 21 -12 37 -6 37 6 0 21 -24 33 -53z m301 43 c18 -7 24 -7 20 0 -5
7 28 10 99 9 100 -2 105 -3 91 -20 -16 -17 -14 -69 4 -98 11 -17 47 2 136 69
l66 50 400 0 400 0 -6 -65 c-3 -36 -7 -95 -10 -132 -3 -38 -8 -84 -11 -103
l-6 -35 -583 3 -583 2 -7 48 c-9 68 -43 179 -71 235 l-24 47 29 0 c16 0 41 -4
56 -10z m-1714 -162 c-15 -29 -39 -79 -52 -110 -12 -32 -26 -58 -31 -58 -12 0
-11 0 27 91 29 68 67 129 82 129 2 0 -10 -24 -26 -52z m1229 1 c-5 -19 -10
-63 -12 -98 l-3 -64 -33 -1 c-18 -1 -30 3 -28 9 79 195 97 230 76 154z m411
-146 l24 -27 -24 15 c-14 9 -27 21 -29 27 -6 19 3 14 29 -15z m-385 -150 l7
-26 22 24 c20 23 45 36 45 23 0 -3 -12 -25 -26 -50 -23 -40 -25 -48 -14 -74 7
-17 16 -30 20 -30 5 0 29 33 54 73 25 39 46 68 46 62 0 -5 -23 -57 -50 -114
-28 -57 -50 -116 -50 -132 l0 -29 -150 0 -150 0 0 143 c0 79 3 147 7 150 3 4
57 7 119 7 l114 0 6 -27z m1624 15 c0 -16 -36 -165 -56 -235 l-15 -53 -586 0
c-553 0 -585 1 -578 18 4 9 12 44 18 77 8 49 7 70 -6 115 l-16 55 21 -25 c27
-32 78 -143 78 -170 0 -11 5 -20 11 -20 8 0 10 23 7 74 -4 55 -12 85 -31 121
-15 26 -27 49 -27 51 0 2 266 4 590 4 469 0 590 -2 590 -12z m-1439 -195 c-12
-20 -14 -14 -5 12 4 9 9 14 11 11 3 -2 0 -13 -6 -23z m149 -60 c0 -24 -5 -33
-16 -33 -11 0 -14 5 -10 16 3 9 6 30 6 47 0 24 3 28 10 17 5 -8 10 -30 10 -47z
m-169 -6 c-6 -15 -15 -27 -21 -27 -5 0 -2 16 7 36 19 39 29 32 14 -9z m-238
-644 c-24 -2 -62 -2 -85 0 -24 2 -5 4 42 4 47 0 66 -2 43 -4z m500 0 c-13 -2
-33 -2 -45 0 -13 2 -3 4 22 4 25 0 35 -2 23 -4z m640 0 c-13 -2 -33 -2 -45 0
-13 2 -3 4 22 4 25 0 35 -2 23 -4z m102 -13 c-3 -5 -10 -10 -16 -10 -5 0 -9 5
-9 10 0 6 7 10 16 10 8 0 12 -4 9 -10z m-2742 -27 c-13 -2 -33 -2 -45 0 -13 2
-3 4 22 4 25 0 35 -2 23 -4z m1144 -100 c-2 -21 -4 -6 -4 32 0 39 2 55 4 38 2
-18 2 -50 0 -70z"/>
<path d="M1310 3932 c-130 -56 -239 -143 -281 -225 l-20 -37 -108 6 c-128 8
-228 -10 -306 -56 -59 -34 -121 -86 -90 -74 120 43 185 56 290 56 94 1 159 -7
225 -27 10 -3 25 13 44 52 37 68 165 206 258 275 93 69 91 74 -12 30z"/>
<path d="M5021 3685 c0 -5 6 -21 14 -35 8 -14 14 -20 14 -15 0 6 -6 21 -14 35
-8 14 -14 21 -14 15z"/>
<path d="M5060 3595 c0 -5 5 -17 10 -25 5 -8 10 -10 10 -5 0 6 -5 17 -10 25
-5 8 -10 11 -10 5z"/>
<path d="M5086 3530 c3 -14 11 -32 16 -40 6 -10 7 -7 2 10 -3 14 -11 32 -16
40 -6 10 -7 7 -2 -10z"/>
<path d="M5117 3450 c3 -14 12 -41 20 -60 11 -30 12 -31 8 -6 -4 16 -13 43
-20 60 -11 23 -13 25 -8 6z"/>
<path d="M1743 3130 c-75 -20 -142 -55 -165 -89 -14 -19 -16 -19 -59 -4 -72
25 -149 28 -213 8 -31 -10 -58 -21 -60 -24 -2 -3 42 -6 97 -7 86 0 112 -4 162
-25 l61 -26 56 51 c31 28 87 67 124 86 84 43 78 39 73 44 -2 2 -36 -4 -76 -14z"/>
<path d="M864 2440 c-28 -16 -54 -36 -58 -46 -5 -14 -15 -15 -60 -10 -56 7
-128 -7 -145 -28 -7 -8 11 -10 64 -8 41 2 88 -1 104 -6 27 -10 32 -8 50 16 17
24 37 41 116 97 l20 14 -20 1 c-11 0 -43 -13 -71 -30z"/>
<path d="M3750 1430 c0 -5 5 -10 10 -10 6 0 10 5 10 10 0 6 -4 10 -10 10 -5 0
-10 -4 -10 -10z"/>
<path d="M4901 1430 c-9 -5 -4 -7 13 -7 15 0 28 3 30 6 6 10 -28 11 -43 1z"/>
<path d="M416 1212 c-4 -7 31 -72 39 -72 2 0 2 12 1 28 -2 15 -4 33 -5 40 -1
13 -27 17 -35 4z"/>
<path d="M473 1205 c-15 -16 -2 -28 21 -19 19 7 22 34 4 34 -7 -1 -19 -7 -25
-15z"/>
<path d="M2448 1213 c12 -2 32 -2 45 0 12 2 2 4 -23 4 -25 0 -35 -2 -22 -4z"/>
<path d="M2848 1213 c12 -2 32 -2 45 0 12 2 2 4 -23 4 -25 0 -35 -2 -22 -4z"/>
</g>
</svg>
