<?xml version="1.0" standalone="no"?>
<!DOCTYPE svg PUBLIC "-//W3C//DTD SVG 20010904//EN"
 "http://www.w3.org/TR/2001/REC-SVG-20010904/DTD/svg10.dtd">
<svg version="1.0" xmlns="http://www.w3.org/2000/svg"
 width="676.000000pt" height="509.000000pt" viewBox="0 0 676.000000 509.000000"
 preserveAspectRatio="xMidYMid meet">

<g transform="translate(0.000000,509.000000) scale(0.100000,-0.100000)"
fill="#000000" stroke="none">
<path d="M2697 4243 c21 -43 42 -114 59 -193 37 -180 57 -219 138 -270 61 -39
90 -63 49 -42 -29 16 -98 24 -137 17 -55 -11 -43 -20 27 -21 71 -1 142 -22
202 -58 l40 -24 -40 -8 c-26 -5 -60 -2 -97 8 -65 16 -66 20 14 -81 67 -84 98
-139 98 -176 0 -14 1 -25 3 -25 1 0 29 -12 62 -26 l60 -25 -60 6 c-33 4 -84
15 -112 24 -29 10 -53 16 -53 15 0 -9 94 -51 170 -75 l85 -28 -50 -1 -50 -1
25 -17 c46 -31 88 -84 124 -156 59 -119 53 -124 -31 -25 -179 211 -588 534
-756 596 -47 17 -49 17 -113 -5 -88 -31 -367 -149 -389 -166 -16 -12 -15 -14
16 -34 l34 -21 81 39 c81 39 246 100 267 100 7 0 -35 -23 -93 -50 -58 -28
-141 -68 -185 -89 l-80 -39 30 -11 c33 -13 93 -43 124 -63 18 -11 23 -10 38
12 31 46 87 91 149 121 79 37 101 37 43 0 -47 -30 -125 -109 -152 -153 -19
-30 -16 -34 52 -63 l44 -19 21 29 c12 16 49 59 84 95 l64 65 -40 -60 c-22 -33
-46 -73 -55 -90 -20 -40 -48 -135 -39 -135 4 1 23 35 42 77 32 70 110 173 131
173 5 0 -5 -23 -21 -51 -17 -28 -37 -66 -45 -86 -15 -34 -14 -35 7 -30 11 3
37 -1 56 -9 51 -21 62 -18 132 31 36 24 65 43 67 42 1 -2 -7 -31 -17 -66 -26
-81 -27 -139 -2 -69 23 63 28 65 24 7 -4 -43 -2 -49 16 -49 11 0 32 16 46 35
15 19 35 39 46 45 18 10 18 9 3 -36 -12 -35 -13 -51 -4 -70 14 -32 27 -30 46
6 21 41 25 38 14 -11 -6 -23 -8 -42 -7 -44 23 -14 81 -45 82 -43 2 2 10 25 20
51 10 27 20 47 22 44 4 -4 -12 -109 -21 -138 -5 -15 -1 -19 18 -19 29 0 54 26
73 77 l14 38 -2 -49 c-2 -47 0 -50 35 -73 l36 -23 12 22 c11 21 12 21 40 -13
31 -38 37 -59 15 -59 -8 0 -52 9 -98 20 -105 25 -104 25 -79 -7 27 -34 20 -41
-16 -15 -73 51 -117 67 -206 72 -48 3 -87 2 -87 -1 0 -3 17 -11 38 -18 37 -11
65 -31 92 -65 11 -14 -4 -9 -50 16 -36 19 -106 51 -155 71 -82 33 -94 35 -128
25 -48 -15 -47 -24 3 -32 44 -7 213 -66 207 -72 -2 -3 -33 3 -68 12 -79 20
-166 8 -256 -36 -52 -26 -130 -87 -121 -95 1 -1 31 2 65 7 34 6 83 7 110 3
l48 -8 -115 -27 c-157 -37 -310 -81 -310 -90 0 -8 144 12 219 30 72 18 56 6
-32 -23 -46 -15 -93 -36 -104 -47 -30 -28 -77 -90 -71 -95 2 -2 40 11 84 30
43 18 93 37 109 41 24 5 18 -1 -26 -28 -31 -19 -66 -42 -80 -51 -22 -16 -111
-17 -1111 -17 l-1088 0 0 -35 0 -35 1045 0 c575 0 1045 -2 1045 -4 0 -2 -15
-37 -34 -77 -19 -41 -33 -75 -32 -76 2 -2 40 33 85 77 48 47 90 80 103 80 18
0 17 -3 -12 -37 -48 -55 -97 -135 -133 -218 l-32 -74 -1003 -4 c-552 -3 -1005
-7 -1008 -10 -3 -3 -2 -26 1 -51 l7 -46 1545 0 1545 0 -6 -37 c-3 -21 -8 -72
-11 -113 -3 -41 -8 -92 -11 -113 l-6 -37 -1494 0 c-1189 0 -1494 -3 -1494 -12
0 -7 9 -40 19 -73 l19 -60 1472 -3 1473 -2 -6 -83 c-4 -45 -7 -103 -7 -129 l0
-48 -1415 -2 -1415 -3 42 -88 41 -87 1369 0 1368 0 -1 -22 c0 -13 -3 -17 -6
-10 -2 6 -13 12 -24 12 -12 0 -16 -5 -13 -15 8 -20 -27 -8 -40 13 -5 9 -11 11
-15 4 -10 -17 -776 -29 -795 -12 -18 14 -152 5 -173 -12 -7 -6 -42 -6 -90 -1
-43 4 -327 7 -630 5 -474 -3 -553 -5 -553 -18 0 -19 -199 -21 -219 -2 -11 10
-14 10 -18 1 -5 -15 -73 -18 -73 -3 0 6 -8 10 -17 11 -11 0 -13 3 -5 6 17 7
15 23 -3 23 -8 0 -15 -5 -15 -11 0 -5 -4 -7 -10 -4 -5 3 -7 0 -4 -9 3 -8 12
-17 20 -20 9 -3 12 -10 9 -16 -3 -5 14 -40 38 -77 24 -38 46 -75 49 -83 8 -22
122 -173 148 -198 13 -12 27 -19 31 -16 5 3 6 -1 3 -9 -3 -8 3 -21 14 -28 10
-8 24 -24 31 -37 7 -13 17 -20 24 -16 7 4 9 4 5 -1 -26 -28 287 -298 498 -429
l91 -56 1193 0 1193 0 91 56 c200 123 362 260 567 479 80 86 196 234 201 256
2 8 6 16 9 19 15 12 102 155 102 167 0 7 4 13 9 13 4 0 8 5 8 10 0 6 -9 10
-20 10 -11 0 -20 -5 -20 -11 0 -6 -5 -7 -12 -2 -7 4 -320 8 -695 8 l-682 0 4
-70 c3 -46 1 -65 -5 -55 -5 8 -10 45 -10 83 l0 67 733 0 733 0 42 85 c23 47
42 87 42 90 0 3 -351 5 -780 5 l-780 0 0 99 c0 54 -3 113 -6 130 l-6 31 176 0
c97 0 176 -3 176 -8 0 -4 -4 -22 -9 -40 -13 -46 4 -40 23 8 9 22 22 40 30 40
13 0 13 -5 1 -41 -8 -23 -15 -57 -15 -76 0 -35 26 -103 40 -103 4 0 25 48 47
108 l40 107 584 6 c321 3 585 6 587 7 12 10 -4 22 -29 22 -17 0 -28 4 -24 10
3 6 20 10 38 10 44 0 22 18 -28 22 l-40 4 53 8 c43 7 55 13 63 33 5 13 9 26 9
29 0 2 -246 4 -546 4 -516 0 -546 1 -539 18 22 56 27 129 12 187 l-15 60 20
-25 c27 -32 78 -144 78 -170 0 -11 5 -20 11 -20 8 0 10 23 7 74 -4 55 -12 85
-31 121 -15 26 -27 49 -27 51 0 2 248 4 550 4 517 0 550 1 550 18 0 9 3 34 6
55 l7 38 -509 -1 c-280 -1 -523 -1 -540 -1 -30 1 -32 4 -39 49 -9 68 -43 179
-71 235 l-24 47 29 0 c16 0 41 -4 56 -10 18 -7 24 -7 20 0 -5 7 28 10 99 9
100 -2 105 -3 91 -20 -16 -17 -14 -69 4 -98 11 -17 47 2 136 69 l66 50 350 0
349 0 0 35 0 35 -315 0 c-173 0 -315 1 -315 3 0 1 14 29 30 61 74 146 2 292
-191 384 -98 46 -152 61 -269 72 -143 13 -395 -17 -567 -69 -18 -5 -33 -6 -33
-2 0 5 57 28 128 51 154 52 169 59 122 60 -28 1 -18 6 50 26 88 26 203 83 267
131 l37 28 -80 10 -79 11 82 7 c45 4 89 10 98 13 24 9 93 121 110 177 16 54
21 167 7 167 -5 0 -42 -11 -82 -25 -40 -14 -75 -23 -78 -21 -5 6 121 89 162
107 22 10 26 19 27 53 2 91 -3 155 -17 241 -27 164 -94 384 -94 310 0 -60
-121 -294 -189 -365 l-39 -41 24 -71 c13 -39 22 -73 20 -76 -3 -2 -19 22 -37
54 l-33 57 -17 -50 c-32 -96 -117 -203 -196 -250 -24 -14 -43 -27 -43 -29 0
-2 9 -36 19 -76 11 -40 23 -95 26 -123 l6 -50 -25 30 c-14 17 -40 56 -56 88
-17 31 -34 57 -37 57 -9 0 7 -89 28 -155 l18 -60 -34 40 -34 40 -1 -42 c-1
-103 -63 -278 -97 -271 -15 3 -17 12 -15 53 5 71 47 256 71 311 12 26 19 49
17 51 -2 2 -22 -26 -45 -62 -23 -36 -43 -65 -46 -65 -7 0 57 133 99 202 22 37
60 91 85 120 42 49 42 51 7 18 -21 -19 -69 -82 -108 -140 -39 -58 -71 -106
-72 -107 -1 -2 6 29 16 68 17 69 17 73 -2 160 -11 49 -20 109 -20 134 0 25 -4
45 -9 45 -5 0 -24 -19 -42 -42 -51 -67 -52 -67 -23 -4 37 81 40 129 15 196
-22 58 -76 140 -92 140 -5 0 -9 -8 -9 -17 0 -21 -31 -90 -53 -118 -10 -13 -5
12 13 65 16 47 32 105 35 130 5 39 2 34 -23 -35 -24 -69 -72 -170 -58 -124 2
10 10 45 17 80 l12 63 -52 47 c-28 25 -74 58 -102 73 l-50 28 7 -26 c3 -15 3
-48 -1 -74 l-7 -47 -24 69 c-31 91 -59 119 -161 156 -46 16 -85 30 -87 30 -1
0 13 -30 31 -67z m339 -423 c118 -180 217 -417 263 -634 12 -54 20 -101 17
-103 -2 -2 -9 20 -16 49 -50 214 -179 526 -298 721 -63 102 -40 80 34 -33z
m964 -67 c-65 -174 -161 -372 -239 -488 -66 -100 -158 -212 -187 -228 -11 -6
3 14 30 44 114 127 285 433 397 711 23 59 45 106 47 104 2 -2 -20 -66 -48
-143z m-121 -990 c0 -35 5 -63 10 -63 5 0 23 -12 40 -26 17 -14 35 -23 40 -20
5 4 14 30 20 59 30 152 28 150 30 57 0 -47 -3 -99 -8 -117 -9 -29 -6 -34 24
-57 19 -15 36 -26 38 -26 3 0 24 29 47 65 23 36 44 65 47 65 6 0 -16 -38 -55
-98 -19 -29 -32 -55 -28 -59 4 -4 39 24 78 63 l71 69 -33 -50 c-19 -27 -50
-70 -69 -95 -20 -25 -43 -54 -51 -65 -35 -48 33 21 87 90 94 117 89 99 -16
-51 l-51 -74 -143 0 c-129 0 -150 3 -232 29 -97 32 -78 44 25 17 30 -8 57 -13
59 -11 7 8 -82 103 -125 135 -35 24 -59 33 -104 37 -61 6 -74 23 -17 23 30 1
31 2 13 15 -10 8 -49 26 -85 40 -86 34 -113 56 -109 92 2 22 8 27 23 25 28 -5
31 -10 18 -31 -10 -16 -8 -20 13 -30 38 -17 49 -14 67 22 l17 32 -5 -30 c-11
-59 -11 -60 16 -63 22 -3 29 3 42 35 l16 38 0 -36 c1 -24 7 -39 17 -43 30 -11
44 -6 50 20 6 22 8 24 16 10 5 -9 7 -20 3 -25 -9 -16 16 -24 30 -10 8 8 18 30
23 49 l10 35 1 -37 c1 -34 4 -38 36 -44 19 -3 41 -4 49 -1 15 6 35 77 37 129
l1 33 8 -30 c4 -16 8 -58 9 -92z m-632 -127 c-15 -63 -30 -135 -33 -160 l-7
-46 -188 0 -188 0 19 45 c27 63 77 136 108 160 l26 19 -20 -29 c-33 -47 -96
-166 -92 -171 8 -7 141 96 218 171 114 109 162 147 174 135 6 -6 1 -48 -17
-124z m-192 105 c-156 -47 -386 -154 -532 -247 -73 -46 -66 -35 10 20 136 97
319 185 467 225 93 25 137 26 55 2z m321 -83 c11 -55 13 -94 7 -149 l-8 -74
-47 -3 -47 -3 5 38 c23 167 52 289 66 275 5 -5 15 -42 24 -84z m171 -141 c18
-28 35 -61 38 -72 l6 -20 -16 20 c-9 11 -36 56 -60 100 -47 84 -22 63 32 -28z
m748 16 c-46 -86 -61 -106 -75 -101 -6 2 6 26 27 55 21 28 47 67 58 87 10 19
21 33 23 31 2 -2 -12 -34 -33 -72z m-1462 -46 c-9 -31 -20 -57 -25 -57 -4 0
-8 4 -8 9 0 12 42 112 46 109 1 -2 -5 -29 -13 -61z m-374 -186 c-11 -30 -18
-55 -16 -58 3 -2 25 10 50 27 31 21 48 40 52 60 11 52 25 33 25 -35 0 -68 7
-79 28 -45 7 11 37 36 67 56 30 19 55 39 55 44 0 6 7 10 16 10 14 0 15 -7 10
-39 -3 -22 -2 -42 3 -45 5 -3 12 14 15 39 l7 45 210 0 c160 0 209 -3 209 -12
0 -7 -9 -80 -20 -162 -11 -81 -20 -151 -20 -155 0 -3 -214 -6 -475 -6 -310 0
-475 3 -475 10 0 20 101 211 130 245 27 31 24 22 -26 -89 -30 -67 -54 -124
-52 -126 2 -2 26 12 55 31 58 37 83 73 133 186 38 88 50 99 19 19z m921 32 c0
-16 4 -34 9 -42 7 -11 12 -3 22 27 7 23 18 42 25 42 10 0 9 -12 -1 -58 -8 -31
-19 -70 -25 -86 -16 -43 -4 -43 20 1 28 50 21 30 -29 -92 l-42 -100 -49 -2
-50 -2 0 63 c0 35 3 111 7 169 l6 107 54 0 c51 0 53 -1 53 -27z m274 -26 c30
-66 72 -201 80 -252 4 -22 -15 21 -42 95 -27 74 -56 152 -65 173 -9 21 -12 37
-6 37 6 0 21 -24 33 -53z m-1412 -119 c-16 -29 -39 -79 -52 -110 -13 -32 -27
-58 -32 -58 -10 0 -11 -3 13 59 27 74 47 112 72 139 31 33 31 27 -1 -30z
m1228 1 c-5 -19 -10 -63 -12 -99 l-3 -65 -33 -1 c-20 -1 -31 3 -29 10 77 190
97 231 77 155z m411 -146 l24 -27 -24 15 c-14 9 -27 21 -29 27 -6 19 3 14 29
-15z m-385 -150 l7 -26 23 26 c21 25 44 36 44 21 0 -3 -12 -25 -26 -50 -23
-40 -25 -48 -14 -74 7 -17 16 -30 20 -30 5 0 29 33 54 73 25 39 46 68 46 62 0
-5 -23 -57 -50 -114 -28 -57 -50 -116 -50 -132 l0 -29 -150 0 -150 0 0 150 0
150 120 0 120 0 6 -27z m176 -213 c-10 -30 -24 -56 -30 -58 -6 -2 1 24 15 57
32 74 40 74 15 1z m158 -27 c0 -24 -5 -33 -16 -33 -11 0 -14 5 -10 16 3 9 6
30 6 47 0 24 3 28 10 17 5 -8 10 -30 10 -47z m-1902 -690 c-10 -2 -28 -2 -40
0 -13 2 -5 4 17 4 22 1 32 -1 23 -4z m1142 -83 c0 -44 -3 -80 -7 -80 -5 0 -7
36 -5 80 2 44 5 80 8 80 2 0 4 -36 4 -80z m-2543 -76 c-3 -3 -12 -4 -19 -1 -8
3 -5 6 6 6 11 1 17 -2 13 -5z m1851 -1 c-333 -2 -882 -2 -1220 0 -337 1 -64 2
607 2 671 0 947 -1 613 -2z m655 0 c-7 -2 -19 -2 -25 0 -7 3 -2 5 12 5 14 0
19 -2 13 -5z m330 0 c-13 -2 -35 -2 -50 0 -16 2 -5 4 22 4 28 0 40 -2 28 -4z
m880 0 c-13 -2 -33 -2 -45 0 -13 2 -3 4 22 4 25 0 35 -2 23 -4z"/>
<path d="M1220 3732 c-130 -56 -239 -143 -281 -225 l-20 -37 -108 6 c-128 8
-228 -10 -306 -56 -59 -34 -121 -86 -90 -74 120 43 185 56 290 56 94 1 159 -7
225 -27 10 -3 25 13 44 52 37 68 165 206 258 275 93 69 91 74 -12 30z"/>
<path d="M1700 2942 c-78 -10 -184 -61 -212 -101 -14 -19 -16 -19 -59 -4 -72
25 -149 28 -213 8 -31 -10 -58 -21 -60 -24 -2 -3 42 -6 97 -7 86 0 112 -4 162
-25 l61 -26 56 51 c31 28 87 67 124 86 38 19 71 36 73 38 9 5 -6 8 -29 4z"/>
<path d="M774 2240 c-28 -16 -54 -36 -58 -46 -5 -14 -15 -15 -60 -10 -57 8
-126 -5 -144 -27 -8 -10 5 -12 63 -9 41 2 88 -1 104 -6 27 -10 32 -8 50 16 17
24 37 41 116 97 l20 14 -20 1 c-11 0 -43 -13 -71 -30z"/>
<path d="M3398 1013 c12 -2 32 -2 45 0 12 2 2 4 -23 4 -25 0 -35 -2 -22 -4z"/>
</g>
</svg>
