<svg xmlns="http://www.w3.org/2000/svg" version="1.0" width="601.000000pt" height="399.000000pt" viewBox="0 0 801.000000 599.000000" preserveAspectRatio="xMidYMid meet">

<g transform="translate(0.000000,599.000000) scale(0.100000,-0.100000)" fill="#000000" stroke="none">
<path d="M5936 4869 c-87 -7 -152 -25 -209 -56 -16 -8 -31 -13 -34 -10 -9 10 -61 -45 -68 -71 -4 -15 -15 -37 -26 -48 -11 -12 -22 -28 -23 -35 -1 -8 -12 -34 -24 -58 -12 -25 -22 -60 -22 -79 0 -29 -10 -46 -55 -93 -59 -61 -61 -76 -19 -104 21 -13 24 -22 19 -46 -5 -22 -3 -31 10 -35 14 -6 14 -9 -4 -25 -17 -16 -19 -24 -11 -45 7 -16 7 -32 0 -44 -27 -51 -3 -77 90 -91 41 -7 83 -19 93 -27 21 -19 22 -60 1 -112 -16 -39 -17 -40 -66 -40 -76 0 -91 -12 -83 -66 l6 -44 -78 -36 c-250 -114 -334 -168 -368 -235 -9 -16 -20 -73 -25 -128 -5 -54 -11 -103 -12 -108 -9 -25 18 -11 99 54 116 93 166 150 209 240 52 107 156 192 254 208 l35 6 -38 -15 c-47 -17 -108 -59 -154 -105 -35 -35 -98 -127 -113 -165 -21 -54 -192 -210 -278 -255 -13 -7 -51 -36 -85 -65 -34 -28 -107 -76 -162 -105 -91 -48 -211 -125 -428 -277 -43 -29 -90 -56 -105 -60 -15 -3 -35 -9 -44 -15 -10 -5 -25 -9 -33 -9 -8 0 -15 -7 -15 -15 0 -10 -10 -15 -33 -15 -24 0 -41 -8 -61 -29 -16 -16 -25 -34 -22 -40 4 -5 -3 -16 -14 -24 -11 -7 -17 -17 -14 -20 10 -10 -41 -73 -128 -159 l-78 -77 -93 -12 c-50 -7 -115 -11 -143 -10 -56 2 -151 -29 -227 -74 -24 -14 -54 -25 -67 -25 -12 0 -64 -20 -115 -44 -52 -24 -139 -58 -194 -75 -56 -17 -101 -35 -101 -39 0 -4 -39 -18 -87 -31 -49 -14 -126 -37 -173 -52 -100 -32 -338 -90 -464 -113 -94 -18 -146 -39 -198 -84 -18 -15 -55 -33 -83 -40 -27 -7 -82 -33 -122 -58 -48 -28 -85 -44 -106 -44 -18 0 -37 -4 -43 -9 -5 -5 -25 -6 -44 -2 -30 6 -32 8 -15 15 18 6 17 9 -12 23 -18 8 -31 20 -30 25 3 15 -176 143 -248 178 -108 52 -171 64 -273 53 -78 -9 -95 -14 -128 -41 -21 -17 -41 -29 -46 -26 -5 3 -7 2 -6 -3 3 -11 -54 -73 -68 -73 -14 0 -46 -29 -61 -57 -32 -56 -60 -269 -44 -331 5 -20 14 -59 21 -87 16 -73 47 -130 76 -143 29 -14 86 -16 66 -3 -10 6 -8 10 9 14 23 6 71 -14 136 -59 29 -19 46 -24 71 -20 30 4 38 -1 101 -65 73 -75 85 -78 115 -28 17 29 21 31 62 24 26 -3 59 -1 79 5 25 8 45 8 75 0 52 -14 73 -2 129 74 44 60 75 73 128 55 41 -13 56 -44 43 -91 -14 -45 -4 -66 35 -77 18 -5 59 -33 90 -62 61 -59 76 -67 117 -68 20 -1 47 -22 108 -85 45 -47 100 -97 123 -113 23 -15 44 -31 47 -34 3 -3 61 -36 130 -72 115 -61 122 -67 90 -68 -19 -1 -42 -1 -50 0 -8 1 -29 4 -47 5 -17 2 -37 7 -44 11 -7 5 -10 4 -5 -3 4 -6 -1 -10 -11 -10 -21 1 -114 -47 -106 -55 3 -3 -14 -11 -38 -17 -31 -9 -39 -14 -28 -21 8 -5 23 -9 34 -10 11 0 -5 -7 -35 -14 -39 -10 -142 -14 -360 -14 l-305 -1 55 51 c30 28 67 58 83 67 15 9 25 22 23 28 -2 6 1 17 7 23 8 8 7 11 -5 11 -9 0 -18 -5 -20 -10 -2 -6 -17 -13 -33 -16 -16 -3 -32 -9 -35 -13 -3 -4 -14 -11 -25 -15 -16 -6 -17 -9 -5 -16 8 -6 13 -10 10 -11 -3 0 -16 -2 -29 -5 -21 -4 -22 -3 -10 13 11 14 8 14 -11 -2 -13 -11 -31 -26 -38 -33 -7 -7 -18 -10 -23 -7 -5 4 -9 2 -9 -3 0 -5 -10 -12 -22 -15 -74 -18 270 211 355 237 53 16 -24 36 -141 36 -45 0 -56 -4 -76 -26 -22 -26 -26 -27 -137 -27 -63 0 -136 1 -164 3 l-50 3 40 7 c22 4 49 10 60 14 16 6 17 6 5 -3 -12 -9 -10 -11 10 -11 14 0 41 5 60 10 24 7 36 7 38 0 3 -8 8 -8 16 -1 7 6 37 15 67 20 40 7 9 8 -116 5 -93 -3 -237 -7 -320 -8 -148 -2 -151 -3 -210 -34 -33 -18 -73 -41 -90 -52 -16 -10 -38 -19 -49 -19 -21 -1 -228 -108 -294 -152 -24 -16 -49 -29 -57 -29 -8 0 -36 -12 -62 -27 -124 -68 -156 -98 -155 -140 0 -16 1 -58 1 -96 l1 -68 528 3 529 3 35 27 c27 21 38 24 47 15 9 -9 129 -11 484 -9 l472 3 -24 -21 -23 -20 2659 0 2660 0 9 47 c8 43 12 48 44 54 19 4 40 3 46 -1 5 -5 26 -7 46 -4 30 5 37 3 42 -14 4 -10 2 -31 -4 -46 -5 -15 -10 -29 -10 -32 0 -2 60 -4 134 -4 l134 0 -10 38 c-5 20 -16 44 -24 53 -23 25 -17 29 46 29 l61 0 -3 132 -3 132 -40 8 c-22 4 -60 18 -85 31 l-45 22 29 20 c66 45 83 140 47 265 -22 78 -97 242 -139 302 -16 24 -42 77 -56 118 -15 41 -37 93 -49 115 -41 74 -133 96 -219 52 -28 -14 -44 -18 -41 -10 7 19 -25 108 -47 128 -30 27 -89 30 -140 7 -184 -84 -296 -113 -465 -117 -71 -3 -173 -9 -225 -15 -291 -32 -369 -42 -410 -51 -71 -16 -377 -118 -447 -150 -36 -16 -75 -29 -88 -29 -12 0 -28 -6 -35 -14 -14 -18 -25 -14 -125 46 -44 26 -81 43 -83 38 -4 -11 -98 111 -95 122 4 12 -87 88 -105 88 -11 0 -34 -11 -53 -25 -79 -56 -119 -76 -139 -70 -12 4 -20 10 -18 15 2 5 62 56 133 114 143 115 280 243 314 293 25 36 61 168 61 223 0 20 4 40 9 46 19 19 41 135 41 218 0 75 4 95 30 149 16 34 52 94 80 132 57 78 87 138 167 335 69 169 111 283 117 315 3 13 16 39 29 57 24 32 79 160 76 175 -1 4 0 15 3 23 15 41 38 182 38 233 0 32 4 56 8 53 5 -3 7 45 5 107 -4 176 21 297 63 297 8 0 13 4 10 8 -6 11 40 53 48 45 3 -4 6 2 6 13 1 10 21 39 46 64 26 25 58 73 75 110 16 35 35 68 42 72 7 4 22 -2 36 -15 l25 -22 -17 27 c-16 26 -19 89 -4 88 4 0 12 0 17 0 6 0 10 -7 10 -15 0 -8 5 -15 10 -15 6 0 10 -5 10 -11 0 -6 -7 -8 -17 -5 -16 6 -16 6 0 -12 11 -12 15 -26 11 -38 -6 -18 -6 -18 7 -1 18 22 47 14 59 -17 7 -16 9 -10 8 24 0 25 -3 35 -5 22 -4 -20 -6 -21 -26 -7 -21 15 -32 45 -17 45 5 0 13 -8 19 -17 9 -17 10 -17 17 0 5 15 9 16 15 5 8 -11 11 -11 18 1 5 7 14 10 20 7 15 -9 14 -39 -1 -54 -7 -7 -8 -12 -4 -12 5 0 3 -7 -4 -15 -7 -8 -9 -15 -4 -15 16 1 49 35 63 65 7 17 20 42 27 57 9 17 11 29 4 33 -5 3 -9 33 -8 65 1 32 5 57 10 54 18 -11 6 14 -17 36 -13 12 -22 26 -20 30 7 11 -47 58 -87 75 -34 13 -42 14 -73 1 -19 -8 -35 -12 -35 -8 0 3 -5 1 -12 -6 -7 -7 -23 -12 -36 -12 -19 0 -23 4 -17 18 5 9 10 31 12 48 4 26 1 32 -19 37 -12 4 -33 7 -46 7 -13 0 -20 4 -17 10 3 6 -1 7 -9 4 -12 -5 -13 -10 -5 -26 6 -10 8 -24 5 -31 -3 -9 -5 -9 -5 0 -1 15 -51 66 -51 51 0 -6 -10 -3 -22 6 -63 46 -107 55 -222 45z m-356 -343 c0 -3 -4 -8 -10 -11 -5 -3 -10 -1 -10 4 0 6 5 11 10 11 6 0 10 -2 10 -4z m-12 -146 c-24 -42 -38 -51 -38 -23 0 18 37 63 52 63 5 0 -2 -18 -14 -40z m-38 -91 c-11 -38 -20 -49 -20 -25 0 17 17 56 25 56 2 0 0 -14 -5 -31z m-779 -1698 c-39 -36 -39 -46 1 -67 27 -14 30 -18 17 -28 -21 -15 -43 -56 -46 -86 -1 -14 -3 -32 -4 -40 -1 -8 -10 -24 -19 -35 -11 -12 -21 -45 -25 -82 -4 -38 -15 -73 -26 -87 -10 -13 -19 -28 -19 -34 0 -18 -116 -90 -228 -141 -131 -60 -319 -171 -412 -244 -36 -28 -124 -102 -196 -164 -104 -88 -137 -122 -154 -160 -39 -85 -55 -114 -67 -125 -15 -12 -50 -19 -138 -25 -47 -3 -73 -10 -78 -19 -7 -12 -25 -14 -88 -10 -94 5 -110 15 -180 115 l-49 70 22 14 c13 8 84 47 158 87 74 40 194 108 265 150 156 93 466 247 515 257 19 3 87 31 150 62 63 31 130 61 149 68 31 11 33 15 27 44 -3 18 -13 40 -21 49 -13 14 -3 27 96 125 70 70 120 130 139 165 43 84 49 89 146 130 49 21 91 39 93 39 2 1 -11 -12 -28 -28z m-963 -351 c-7 -10 -14 -17 -17 -15 -4 4 18 35 25 35 2 0 -1 -9 -8 -20z m3442 -1020 c-8 -5 -22 -9 -30 -9 -10 0 -8 3 5 9 27 12 43 12 25 0z m-53 -16 c-3 -3 -12 -4 -19 -1 -8 3 -5 6 6 6 11 1 17 -2 13 -5z m-77 -18 c-25 -6 -52 -10 -60 -7 -9 4 0 8 20 12 62 11 87 8 40 -5z m259 -10 c-3 -3 -24 -9 -48 -15 -24 -5 -39 -6 -35 -1 12 11 94 26 83 16z m-1881 -124 c2 -7 10 -12 18 -12 8 0 14 -2 14 -4 0 -2 3 -12 7 -21 5 -15 3 -16 -15 -6 -29 16 -41 13 -18 -4 11 -8 28 -15 38 -15 10 0 18 -4 18 -10 0 -13 -13 -13 -45 2 -23 10 -30 21 -26 42 1 5 -5 17 -14 26 -16 17 -15 18 1 16 10 -2 20 -8 22 -14z m-48 -14 c0 -6 -6 -5 -15 2 -8 7 -15 14 -15 16 0 2 7 1 15 -2 8 -4 15 -11 15 -16z m186 -104 c18 -14 18 -14 -6 -3 -31 14 -36 19 -24 19 6 0 19 -7 30 -16z m64 -25 c0 -14 -16 -11 -29 5 -10 12 -8 13 8 9 12 -3 21 -9 21 -14z m1583 -95 c37 -45 49 -86 36 -123 -12 -33 -31 -45 -74 -46 -23 0 -31 -5 -33 -21 -5 -33 21 -51 87 -58 54 -6 94 -16 141 -33 8 -4 18 -6 21 -5 3 0 22 -3 42 -8 28 -6 41 -4 52 7 8 8 15 10 15 4 0 -15 27 -14 33 2 4 9 8 9 15 -1 7 -11 10 -11 15 2 4 9 3 15 -1 15 -23 -4 -32 4 -32 25 0 17 -12 32 -43 53 l-44 29 17 32 17 32 66 -61 c78 -72 95 -106 77 -149 -11 -26 -18 -30 -51 -30 -45 0 -60 -27 -35 -65 14 -22 14 -24 -2 -29 -32 -11 -354 11 -362 24 -4 6 -5 22 -3 34 3 13 -6 45 -20 72 -41 82 -56 138 -62 238 l-5 96 53 0 c48 0 54 -3 80 -36z m-6213 -224 c0 -5 -8 -10 -18 -10 -10 0 -23 -5 -29 -11 -6 -6 -17 -8 -24 -4 -8 5 0 12 22 20 45 16 49 17 49 5z m108 -7 c-10 -2 -28 -2 -40 0 -13 2 -5 4 17 4 22 1 32 -1 23 -4z m241 -59 c-6 -8 -18 -14 -25 -14 -8 0 -14 -4 -14 -10 0 -5 -18 -13 -41 -16 -23 -4 -36 -10 -29 -14 7 -4 1 -7 -15 -7 -15 0 -23 2 -18 6 14 9 24 41 13 41 -6 0 -10 -7 -10 -15 0 -8 -4 -15 -9 -15 -14 0 -22 30 -8 31 7 0 3 4 -8 8 -14 6 1 11 55 17 92 11 125 8 109 -12z m-202 -40 c-3 -3 -12 -4 -19 -1 -8 3 -5 6 6 6 11 1 17 -2 13 -5z m68 -44 c-3 -5 -17 -10 -31 -10 -14 0 -22 -4 -19 -10 3 -5 1 -10 -4 -10 -6 0 -11 5 -11 10 0 6 -7 10 -16 10 -8 0 -13 4 -10 8 3 5 26 10 51 10 29 2 44 -2 40 -8z m-148 -76 c-3 -3 -12 -4 -19 -1 -8 3 -5 6 6 6 11 1 17 -2 13 -5z m-230 -10 c-3 -3 -12 -4 -19 -1 -8 3 -5 6 6 6 11 1 17 -2 13 -5z m206 -21 c-7 -2 -21 -2 -30 0 -10 3 -4 5 12 5 17 0 24 -2 18 -5z m-646 -69 c-3 -3 -12 -4 -19 -1 -8 3 -5 6 6 6 11 1 17 -2 13 -5z"/>
<path d="M1290 501 c0 -4 11 -6 25 -3 14 2 25 6 25 8 0 2 -11 4 -25 4 -14 0 -25 -4 -25 -9z"/>
<path d="M2070 356 c0 -2 7 -6 15 -10 8 -3 15 -1 15 4 0 6 -7 10 -15 10 -8 0 -15 -2 -15 -4z"/>
</g>
</svg>
